<svg width="2270" height="2500" viewBox="0 0 2270 2500" fill="none" xmlns="http://www.w3.org/2000/svg">
<path d="M718.667 2500C948.667 2500 1135.33 2313.33 1135.33 2083.33V1666.67H718.667C488.667 1666.67 302 1853.33 302 2083.33C302 2313.33 488.667 2500 718.667 2500Z" fill="#0ACF83"/>
<path d="M302 1250C302 1020 488.667 833.333 718.667 833.333H1135.33V1666.67H718.667C488.667 1666.67 302 1480 302 1250Z" fill="#A259FF"/>
<path d="M302 416.667C302 186.667 488.667 0 718.667 0H1135.33V833.333H718.667C488.667 833.333 302 646.667 302 416.667Z" fill="#F24E1E"/>
<path d="M1135.33 0H1552C1782 0 1968.67 186.667 1968.67 416.667C1968.67 646.667 1782 833.333 1552 833.333H1135.33V0Z" fill="#FF7262"/>
<path d="M1968.67 1250C1968.67 1480 1782 1666.67 1552 1666.67C1322 1666.67 1135.33 1480 1135.33 1250C1135.33 1020 1322 833.333 1552 833.333C1782 833.333 1968.67 1020 1968.67 1250Z" fill="#1ABCFE"/>
</svg>
