<svg width="2270" height="2500" viewBox="0 0 2270 2500" fill="none" xmlns="http://www.w3.org/2000/svg">
<path d="M226 2018.25L241.118 1997.09L956.104 640.422L957.614 626.059L642.442 34.0327C616.022 -15.5586 541.678 -3.01838 533.019 52.4977L226 2018.25Z" fill="#FFC24A"/>
<path d="M234.922 2002.12L246.351 1979.82L953.853 637.367L639.457 42.9341C613.33 -6.13737 546.975 6.37439 538.402 61.3065L234.922 2002.12Z" fill="#FFA712"/>
<path d="M1187.38 1073.87L1422.06 833.532L1187.31 385.402C1165.03 342.981 1102.81 342.853 1080.77 385.402L955.342 624.578V644.944L1187.38 1073.87H1187.38Z" fill="#F4BD62"/>
<path d="M1183.2 1063.86L1411.35 830.199L1183.2 395.763C1161.53 354.525 1108.9 350.202 1087.47 391.561L961.387 634.455L957.613 646.874L1183.2 1063.86Z" fill="#FFA50E"/>
<path d="M226 2018.25L232.85 2011.36L257.746 2001.25L1172.64 1089.75L1184.24 1058.2L956.005 623.282L226 2018.25Z" fill="#F6820C"/>
<path d="M1216.69 2477.94L2044.7 2016.16L1808.25 559.933C1800.85 514.372 1744.96 496.363 1712.34 529.027L226 2018.25L1049.26 2477.91C1074.84 2492.19 1103.66 2499.7 1132.97 2499.7C1162.28 2499.71 1191.1 2492.22 1216.69 2477.94Z" fill="#FDE068"/>
<path d="M2037.28 2012.29L1802.62 567.118C1795.29 521.899 1748.8 503.192 1716.44 535.614L235.186 2015.42L1049.4 2470.51C1074.8 2484.69 1103.4 2492.14 1132.48 2492.15C1161.56 2492.16 1190.17 2484.72 1215.57 2470.56L2037.29 2012.28L2037.28 2012.29Z" fill="#FCCA3F"/>
<path d="M1216.69 2464.33C1191.09 2478.61 1162.27 2486.1 1132.97 2486.09C1103.66 2486.09 1074.84 2478.58 1049.26 2464.3L232.63 2011.25L226.008 2018.25L1049.26 2477.91C1074.85 2492.19 1103.66 2499.7 1132.97 2499.7C1162.28 2499.71 1191.1 2492.22 1216.69 2477.94L2044.7 2016.16L2042.67 2003.68L1216.69 2464.34L1216.69 2464.33Z" fill="#EEAB37"/>
</svg>
